<?xml version="1.0" encoding="UTF-8"?> <svg xmlns="http://www.w3.org/2000/svg" id="Capa_1" data-name="Capa 1" version="1.1" viewBox="0 0 155.23 94.29"><defs><style> .cls-1 { fill: #e83d48; } .cls-1, .cls-2 { stroke-width: 0px; } .cls-2 { fill: #010101; } </style></defs><path class="cls-2" d="M105.79,65.86c0,1.94,1.11,2.76,2.31,2.76s1.69-.62,2.02-1.24l-.58-.29c-.29.54-.83.91-1.49.91-.87,0-1.57-.83-1.57-1.98h3.42v-.5c0-1.69-.91-2.39-2.02-2.39-1.24-.04-2.1.99-2.1,2.72ZM107.97,63.75c.78,0,1.28.66,1.28,1.65h-2.68c.04-1.03.54-1.65,1.4-1.65ZM105.83,57.77c1.2,0,1.69-.62,2.02-1.24l-.58-.29c-.29.54-.83.91-1.49.91-.87,0-1.57-.83-1.57-1.98h3.42v-.5c0-1.69-.91-2.39-2.02-2.39-1.32,0-2.15,1.03-2.15,2.76.04,1.9,1.2,2.72,2.35,2.72ZM105.7,52.9c.78,0,1.28.66,1.28,1.65h-2.68c.04-.99.54-1.65,1.4-1.65ZM130.58,70.03l.66-1.53v-1.11h-.99v1.11h.41l-.5,1.53h.41ZM132.69,55.38h2.64l.7,2.31h.87l-2.27-7.34h-1.24l-2.27,7.34h.87l.7-2.31ZM133.93,50.88h.12l1.07,3.8h-2.23l1.03-3.8ZM123.82,79.35v-7.34h-.74v7.34h.74ZM104.34,61.03h-.74v.87h.74v-.87ZM98.15,54.35h1.73l1.49,3.34h.87l-1.57-3.51c.87-.29,1.49-.87,1.49-1.9,0-1.24-.87-1.94-2.48-1.94h-2.35v7.34h.83v-3.34h0ZM98.15,51h1.49c1.03,0,1.73.29,1.73,1.28,0,.91-.58,1.36-1.69,1.36h-1.49v-2.64h-.04ZM103.6,68.5h.74v-5.28h-.74v5.28ZM132.44,81.29c1.65,0,2.43-.66,2.43-1.44,0-1.03-.83-1.49-3.3-1.49-.25,0-.45-.12-.45-.37s.12-.41.41-.5c.29.08.5.12.95.12,1.07,0,1.94-.83,1.94-1.86,0-.5-.21-.91-.37-1.07.17-.08.5-.12.83-.12v-.74c-.41.04-.83.25-1.16.45-.33-.25-.74-.37-1.32-.37-1.11,0-2.02.74-2.02,1.86,0,.58.21,1.11.74,1.49-.41.25-.7.45-.7.91,0,.33.25.62.66.74-.58.29-.91.54-.91,1.07,0,.91.78,1.32,2.27,1.32ZM131.08,75.8c0-.7.45-1.24,1.28-1.24.91,0,1.36.5,1.36,1.28,0,.62-.41,1.2-1.28,1.2-.83-.04-1.36-.54-1.36-1.24ZM132.32,79.1c1.28,0,1.82.25,1.82.78s-.74.78-1.61.78c-1.49,0-1.69-.25-1.69-.66.04-.37.33-.91,1.49-.91ZM124.68,64.21l.66.33c.12-.37.54-.83,1.36-.83.62,0,1.07.25,1.07.95v.29c-2.35.41-3.26.99-3.26,2.15,0,.95.7,1.44,1.53,1.44s1.4-.41,1.73-.83l.08.74h.74c-.08-.29-.12-.58-.12-1.16v-2.68c0-1.16-.95-1.61-1.82-1.61-.99.08-1.65.62-1.98,1.2ZM127.78,67.1c-.41.5-1.11.87-1.65.87-.41,0-.87-.33-.87-.83,0-.74.83-1.24,2.52-1.53v1.49ZM118.74,68.62c1.03,0,1.53-.45,2.06-1.36l-.58-.25c-.41.74-.78.99-1.44.99-.91,0-1.44-.78-1.44-2.1s.54-2.1,1.44-2.1c.62,0,1.03.41,1.24,1.03l.7-.25c-.33-.83-.87-1.44-1.94-1.44-1.32,0-2.19,1.03-2.19,2.76-.04,1.65.83,2.72,2.15,2.72ZM119.65,57.77c.62,0,1.16-.29,1.4-.62l.08.54h.66c-.08-.37-.04-.78-.04-1.16v-6.19h-.74v2.56h-.04c-.41-.33-.91-.58-1.4-.58-.91,0-2.15.7-2.15,2.76.04,2.06,1.28,2.68,2.23,2.68ZM119.69,52.9c.45,0,.95.29,1.32.74v2.81c-.54.5-.87.7-1.32.7-.91,0-1.49-.74-1.49-2.06,0-1.61.66-2.19,1.49-2.19ZM123.03,63.22h-.74v5.28h.74v-5.28ZM110.86,57.77c.62,0,1.16-.29,1.4-.62l.08.54h.66c-.04-.37-.04-.78-.04-1.16v-6.19h-.74v2.56h-.04c-.41-.33-.91-.58-1.4-.58-.91,0-2.15.7-2.15,2.76.08,2.06,1.28,2.68,2.23,2.68ZM110.94,52.9c.45,0,.95.29,1.32.74v2.81c-.54.5-.87.7-1.32.7-.91,0-1.49-.74-1.49-2.06-.04-1.61.62-2.19,1.49-2.19ZM125.39,57.77c1.2,0,1.69-.62,2.02-1.24l-.58-.29c-.29.54-.83.91-1.49.91-.87,0-1.57-.83-1.57-1.98h3.42v-.5c0-1.69-.91-2.39-2.02-2.39-1.32,0-2.15,1.03-2.15,2.76.04,1.9,1.16,2.72,2.35,2.72ZM125.26,52.9c.78,0,1.28.66,1.28,1.65h-2.68c.04-.99.54-1.65,1.4-1.65ZM123.03,61.03h-.74v.87h.74v-.87ZM112.14,63.92h0l-.04-.7h-.74v5.28h.74v-3.96c.33-.37.95-.83,1.53-.83.54,0,.87.25.87.95v3.84h.74v-3.84c0-1.16-.74-1.57-1.53-1.57-.58,0-1.16.37-1.57.83ZM119.49,73.95c-1.44,0-2.19,1.24-2.19,2.76s.74,2.76,2.19,2.76,2.19-1.24,2.19-2.76c-.04-1.57-.74-2.76-2.19-2.76ZM119.49,78.82c-.87,0-1.44-.74-1.44-2.1s.58-2.1,1.44-2.1,1.44.74,1.44,2.1-.58,2.1-1.44,2.1ZM136.24,89.01v-6.19h-.74v2.56h-.04c-.41-.33-.91-.58-1.4-.58-.91,0-2.15.7-2.15,2.76s1.24,2.76,2.19,2.76c.62,0,1.16-.29,1.4-.62l.08.54h.66c-.04-.45,0-.83,0-1.24ZM135.5,88.92c-.54.5-.87.7-1.32.7-.91,0-1.49-.74-1.49-2.06,0-1.61.66-2.15,1.49-2.15.45,0,.95.29,1.32.74v2.76ZM136.11,74.03v5.28h.74v-5.28h-.74ZM130.75,86.37c0-1.16-.95-1.61-1.82-1.61-.99,0-1.65.5-1.98,1.11l.66.33c.12-.37.54-.83,1.36-.83.62,0,1.07.25,1.07.95v.29c-2.35.41-3.26.99-3.26,2.15,0,.95.7,1.44,1.53,1.44s1.4-.41,1.73-.83l.08.74h.74c-.08-.29-.12-.58-.12-1.16v-2.6h0ZM130.01,88.76c-.41.5-1.11.87-1.65.87-.41,0-.87-.33-.87-.83,0-.74.83-1.24,2.52-1.53v1.49ZM129.59,76.67c0-1.53-.74-2.76-2.19-2.76s-2.19,1.24-2.19,2.76.74,2.76,2.19,2.76c1.44,0,2.19-1.2,2.19-2.76ZM125.96,76.67c0-1.36.58-2.1,1.44-2.1s1.44.74,1.44,2.1-.58,2.1-1.44,2.1c-.87.04-1.44-.7-1.44-2.1ZM135.83,73.41h.7l1.32-1.44h-1.11l-.91,1.44ZM125.47,89.01v-6.19h-.74v2.56h-.04c-.41-.33-.91-.58-1.4-.58-.91,0-2.15.7-2.15,2.76s1.24,2.76,2.19,2.76c.62,0,1.16-.29,1.4-.62l.08.54h.66c-.04-.45,0-.83,0-1.24ZM124.73,88.92c-.54.5-.87.7-1.32.7-.91,0-1.49-.74-1.49-2.06,0-1.61.66-2.15,1.49-2.15.45,0,.95.29,1.32.74v2.76ZM142.3,56.78v-3.75h1.24v-.66h-1.24v-1.73h-.74v1.73h-.87v.62h.87v3.88c0,.66.33.87,1.11.87.41,0,.74-.04.87-.08v-.62c-.21.04-.41.04-.66.04-.41.08-.58-.04-.58-.29ZM148.45,78.07h0l-1.44-4.04h-.78l1.86,5.36c-.25,1.16-.95,1.28-1.4,1.28-.17,0-.29,0-.41-.04v.62c.12,0,.29.04.54.04.7,0,1.4-.29,1.77-1.49l1.86-5.78h-.78l-1.2,4.04ZM150.06,56.53v1.11h.41l-.5,1.53h.41l.66-1.53v-1.11h-.99ZM148.66,56.53l-.58-.29c-.29.54-.83.91-1.49.91-.87,0-1.57-.83-1.57-1.98h3.42v-.5c0-1.69-.91-2.39-2.02-2.39-1.32,0-2.15,1.03-2.15,2.76,0,1.94,1.11,2.76,2.31,2.76,1.24-.04,1.73-.66,2.06-1.28ZM146.51,52.9c.78,0,1.28.66,1.28,1.65h-2.68c0-.99.5-1.65,1.4-1.65ZM142.3,75.51c0-1.16-.95-1.61-1.82-1.61-.99,0-1.65.5-1.98,1.11l.66.33c.12-.37.54-.83,1.36-.83.62,0,1.07.25,1.07.95v.29c-2.35.41-3.26.99-3.26,2.15,0,.95.7,1.44,1.53,1.44s1.4-.41,1.73-.83l.08.74h.74c-.08-.29-.12-.58-.12-1.16v-2.6ZM139.91,78.82c-.41,0-.87-.33-.87-.83,0-.74.83-1.24,2.52-1.53v1.44c-.41.5-1.11.91-1.65.91ZM118.29,89.63c-.87,0-1.57-.83-1.57-1.98h3.42v-.5c0-1.69-.91-2.39-2.02-2.39-1.32,0-2.15,1.03-2.15,2.76,0,1.94,1.11,2.76,2.31,2.76s1.69-.62,2.02-1.24l-.58-.29c-.29.54-.78.87-1.44.87ZM118.16,85.42c.78,0,1.28.66,1.28,1.65h-2.68c.04-1.03.54-1.65,1.4-1.65ZM138.55,54.72c.33-1.07.83-1.69,1.73-1.73v-.74c-.87,0-1.32.41-1.73,1.11h0v-.99h-.74v5.28h.74v-2.93ZM99.56,68.62c1.53,0,2.27-.95,2.6-2.31l-.74-.12c-.21.91-.66,1.73-1.77,1.73-1.24,0-2.06-.95-2.06-3.09s.83-3.09,1.9-3.09,1.57.62,1.82,1.65l.74-.21c-.33-1.36-1.11-2.15-2.48-2.15-1.77,0-2.81,1.4-2.81,3.8,0,2.56,1.16,3.8,2.81,3.8ZM48.31,44.03h4.7v46.21h8.83v-46.21h4.7v-9.04h-18.24v9.04ZM77.98,34.09c-2.76,0-5.03.99-6.85,2.97-2.06,2.27-3.09,5.36-3.09,9.33s.78,7.67,2.35,10.85l7.06,14.32c1.4,2.81,2.06,5.49,2.06,8,0,1.32-.45,2.02-1.32,2.02s-1.32-.54-1.32-1.65v-6.52h-8.83v6.68c0,3.47,1.07,6.19,3.18,8.21,1.9,1.9,4.21,2.85,6.89,2.85s5.08-.99,6.89-2.97c2.06-2.27,3.09-5.36,3.09-9.33s-.83-7.51-2.43-10.85l-6.97-14.28c-1.24-2.76-1.86-5.45-1.86-8.05,0-1.32.45-2.02,1.32-2.02s1.32.54,1.32,1.65v6.48h8.62v-6.68c0-3.42-1.07-6.15-3.22-8.21-1.9-1.86-4.21-2.81-6.89-2.81ZM97.82,84.55c0-.74.54-1.16,1.36-1.16.95,0,1.53.58,1.73,1.28l.74-.17c-.37-1.2-1.28-1.82-2.43-1.82-1.32,0-2.23.83-2.23,1.9,0,2.31,4.13,1.77,4.13,3.63,0,.74-.54,1.32-1.61,1.32s-1.65-.7-1.94-1.49l-.74.25c.37.87,1.03,1.9,2.64,1.9,1.86,0,2.48-1.07,2.48-2.15,0-2.31-4.17-1.9-4.13-3.51ZM98.77,79.35h.83v-6.68h2.19v-.7h-5.2v.7h2.19v6.68ZM36.8,34.09c-2.85,0-5.24,1.03-7.18,3.09-1.94,2.06-2.89,4.7-2.89,7.88v35.11c0,3.18.95,5.82,2.89,7.88,1.94,2.06,4.33,3.09,7.18,3.09s5.28-1.03,7.22-3.09,2.93-4.7,2.93-7.88v-12.58h-8.87v12.83c0,.87-.41,1.32-1.24,1.32-.87,0-1.32-.45-1.32-1.32v-35.65c0-.87.45-1.32,1.32-1.32s1.24.45,1.24,1.32v12.83h8.83v-12.58c0-3.18-.99-5.82-2.93-7.88-1.94-2.02-4.33-3.05-7.18-3.05ZM8.66,35l-6.15,55.29h8.58l.7-8.5h4.79l.7,8.5h8.79l-6.02-55.29s-11.39,0-11.39,0ZM12.53,72.79l1.24-15.35.41-7.06.41,7.06,1.24,15.35h-3.3ZM113.79,83.6h.74v-.87h-.74v.87ZM113.79,90.16h.74v-5.28h-.74v5.28ZM116.02,75.47c0-1.16-.74-1.57-1.53-1.57-.62,0-1.16.33-1.57.83h-.04v-.7h-.74v5.28h.74v-3.96c.33-.37.95-.83,1.53-.83.54,0,.87.25.87.95v3.84h.74v-3.84ZM110.24,89.63c-.91,0-1.44-.78-1.44-2.1s.54-2.1,1.44-2.1c.62,0,1.03.41,1.24,1.03l.7-.25c-.33-.83-.87-1.44-1.94-1.44-1.32,0-2.19,1.03-2.19,2.76s.87,2.76,2.19,2.76c1.03,0,1.53-.45,2.06-1.36l-.58-.25c-.45.74-.83.95-1.49.95ZM105.83,78.2l-.58-.29c-.29.54-.83.91-1.49.91-.87,0-1.57-.83-1.57-1.98h3.42v-.5c0-1.69-.91-2.39-2.02-2.39-1.32,0-2.15,1.03-2.15,2.76,0,1.94,1.11,2.76,2.31,2.76,1.2-.04,1.69-.66,2.06-1.28ZM103.64,74.57c.78,0,1.28.66,1.28,1.65h-2.68c.04-.99.54-1.65,1.4-1.65ZM110.78,78.11l-.58-.25c-.41.74-.78.99-1.44.99-.91,0-1.44-.78-1.44-2.1s.54-2.1,1.44-2.1c.62,0,1.03.41,1.24,1.03l.7-.25c-.33-.83-.87-1.44-1.94-1.44-1.32,0-2.19,1.03-2.19,2.76s.87,2.76,2.19,2.76c1.03-.08,1.49-.54,2.02-1.4ZM105.13,84.76c-1.44,0-2.19,1.24-2.19,2.76s.74,2.76,2.19,2.76,2.19-1.24,2.19-2.76c-.04-1.53-.74-2.76-2.19-2.76ZM105.13,89.63c-.87,0-1.44-.74-1.44-2.1s.58-2.1,1.44-2.1,1.44.74,1.44,2.1-.58,2.1-1.44,2.1Z"></path><path class="cls-1" d="M28.34,20.06l-.45.45-.45-.45c-.33-.41-.58-.5-1.11-.45,0,.54.08.78.45,1.11l.45.45c-.29.29-.7.66-.87.87-.04.21-.08.45-.08.7.25,0,.5-.04.7-.08l.87-.87c.29.29.7.7.87.87.21.04.45.08.7.08,0-.25-.04-.5-.08-.7l-.87-.87.45-.45c.41-.33.5-.58.45-1.11-.45-.04-.74.08-1.03.45ZM28.96,24.18c.41-.33.5-.58.45-1.11-.54,0-.78.08-1.11.45l-.45.45-.45-.45c-.33-.41-.58-.5-1.11-.45,0,.54.08.78.45,1.11l.45.45-.87.87c-.04.21-.08.45-.08.7.25,0,.5-.04.7-.08.17-.17.58-.58.87-.87.29.29.7.7.87.87.21.04.45.08.7.08,0-.25-.04-.5-.08-.7l-.87-.87c.29-.21.54-.45.54-.45ZM28.34,16.59l-.45.45-.45-.45c-.33-.41-.58-.5-1.11-.45,0,.54.08.78.45,1.11l.45.45-.87.87c-.04.21-.08.45-.08.7.25,0,.5-.04.7-.08.17-.17.58-.58.87-.87.29.29.7.7.87.87.21.04.45.08.7.08,0-.25-.04-.5-.08-.7l-.87-.87.45-.45c.41-.33.5-.58.45-1.11-.45-.04-.74.04-1.03.45ZM31.8,13.13s-.25.25-.45.45c-.21-.21-.45-.45-.45-.45-.33-.41-.58-.5-1.11-.45,0,.54.08.78.45,1.11l.45.45c-.29.29-.7.7-.87.87-.04.21-.08.45-.08.7.25,0,.5-.04.7-.08l.87-.87c.29.29.7.7.87.87.21.04.45.08.7.08,0-.25-.04-.5-.08-.7l-.87-.87.45-.45c.41-.33.5-.58.45-1.11-.45-.04-.7.04-1.03.45ZM32.46,27.65c.41-.33.5-.58.45-1.11-.54,0-.78.08-1.11.45l-.45.45-.45-.45c-.33-.41-.58-.5-1.11-.45,0,.54.08.78.45,1.11l.45.45-.87.87c-.04.21-.08.45-.08.7.25,0,.5-.04.7-.08l.87-.87.87.87c.21.04.45.08.7.08,0-.25-.04-.5-.08-.7l-.87-.87c.25-.21.54-.45.54-.45ZM35.93,27.65c.41-.33.5-.58.45-1.11-.54,0-.78.08-1.11.45l-.45.45-.45-.45c-.33-.41-.58-.5-1.11-.45,0,.54.08.78.45,1.11l.45.45-.87.87c-.04.21-.08.45-.08.7.25,0,.5-.04.7-.08l.87-.87.87.87c.21.04.45.08.7.08,0-.25-.04-.5-.08-.7l-.87-.87c.29-.21.54-.45.54-.45ZM21.98,17.21c.41-.33.5-.58.45-1.11-.54,0-.78.08-1.11.45l-.45.45-.45-.45c-.33-.41-.58-.5-1.11-.45,0,.54.08.78.45,1.11l.45.45-.87.87c-.04.21-.08.45-.08.7.25,0,.5-.04.7-.08l.87-.87.87.87c.21.04.45.08.7.08,0-.25-.04-.5-.08-.7l-.87-.87c.29-.21.54-.45.54-.45ZM31.8,20.06l-.45.45-.45-.45c-.33-.41-.58-.5-1.11-.45,0,.54.08.78.45,1.11l.45.45c-.29.29-.7.7-.87.87-.04.21-.08.45-.08.7.25,0,.5-.04.7-.08l.87-.87c.29.29.7.7.87.87.21.04.45.08.7.08,0-.25-.04-.5-.08-.7l-.87-.87.45-.45c.41-.33.5-.58.45-1.11-.45-.04-.7.08-1.03.45ZM10.84,23.52s-.25.25-.45.45c-.21-.21-.45-.45-.45-.45-.33-.41-.58-.5-1.11-.45,0,.54.08.78.45,1.11,0,0,.25.25.45.45-.29.29-.7.7-.87.87-.04.21-.08.45-.08.7.25,0,.5-.04.7-.08.17-.17.58-.58.87-.87.29.29.7.7.87.87.21.04.45.08.7.08,0-.25-.04-.5-.08-.7-.17-.17-.58-.58-.87-.87.21-.21.45-.45.45-.45.41-.33.5-.58.45-1.11-.41,0-.7.08-1.03.45ZM11.5,27.65c.41-.33.5-.58.45-1.11-.54,0-.78.08-1.11.45,0,0-.25.25-.45.45-.21-.21-.45-.45-.45-.45-.33-.41-.58-.5-1.11-.45,0,.54.08.78.45,1.11,0,0,.25.25.45.45-.29.29-.7.7-.87.87-.04.21-.08.45-.08.7.25,0,.5-.04.7-.08.17-.17.58-.58.87-.87.29.29.7.7.87.87.21.04.45.08.7.08,0-.25-.04-.5-.08-.7-.17-.17-.58-.58-.87-.87.29-.21.54-.45.54-.45ZM35.31,20.06l-.45.45-.45-.45c-.33-.41-.58-.5-1.11-.45,0,.54.08.78.45,1.11l.45.45c-.29.29-.7.7-.87.87-.04.21-.08.45-.08.7.25,0,.5-.04.7-.08l.87-.87c.29.29.7.7.87.87.21.04.45.08.7.08,0-.25-.04-.5-.08-.7l-.87-.87.45-.45c.41-.33.5-.58.45-1.11-.45-.04-.74.08-1.03.45ZM56.27,6.15s-.25.25-.45.45c-.21-.21-.45-.45-.45-.45-.33-.41-.58-.5-1.11-.45,0,.54.08.78.45,1.11,0,0,.25.25.45.45-.29.29-.7.7-.87.87-.04.21-.08.45-.08.7.25,0,.5-.04.7-.08.17-.17.58-.58.87-.87.29.29.7.7.87.87.21.04.45.08.7.08,0-.25-.04-.5-.08-.7-.17-.17-.58-.58-.87-.87.21-.21.45-.45.45-.45.41-.33.5-.58.45-1.11-.45,0-.74.08-1.03.45ZM10.84,20.06s-.25.25-.45.45c-.21-.21-.45-.45-.45-.45-.33-.41-.58-.5-1.11-.45,0,.54.08.78.45,1.11,0,0,.25.25.45.45-.29.29-.7.7-.87.87-.04.21-.08.45-.08.7.25,0,.5-.04.7-.08.17-.17.58-.58.87-.87.29.29.7.7.87.87.21.04.45.08.7.08,0-.25-.04-.5-.08-.7-.17-.17-.58-.58-.87-.87.21-.21.45-.45.45-.45.41-.33.5-.58.45-1.11-.41-.04-.7.08-1.03.45ZM18.48,13.75c.41-.33.5-.58.45-1.11-.54,0-.78.08-1.11.45,0,0-.25.25-.45.45-.21-.21-.45-.45-.45-.45-.33-.41-.58-.5-1.11-.45,0,.54.08.78.45,1.11l.45.45-.87.87c-.04.21-.08.45-.08.7.25,0,.5-.04.7-.08l.87-.87.87.87c.21.04.45.08.7.08,0-.25-.04-.5-.08-.7l-.87-.87c.29-.21.54-.45.54-.45ZM14.97,17.21c.41-.33.5-.58.45-1.11-.54,0-.78.08-1.11.45,0,0-.25.25-.45.45-.21-.21-.45-.45-.45-.45-.33-.41-.58-.5-1.11-.45,0,.54.08.78.45,1.11,0,0,.25.25.45.45-.29.29-.7.7-.87.87-.04.21-.08.45-.08.7.25,0,.5-.04.7-.08.17-.17.58-.58.87-.87l.87.87c.21.04.45.08.7.08,0-.25-.04-.5-.08-.7-.17-.17-.58-.58-.87-.87.29-.21.54-.45.54-.45ZM10.84,13.13l-.45.45-.45-.45c-.33-.41-.58-.5-1.11-.45,0,.54.08.78.45,1.11,0,0,.25.25.45.45-.29.29-.7.7-.87.87-.04.21-.08.45-.08.7.25,0,.5-.04.7-.08.17-.17.58-.58.87-.87.29.29.7.7.87.87.21.04.45.08.7.08,0-.25-.04-.5-.08-.7-.17-.17-.58-.58-.87-.87.21-.21.45-.45.45-.45.41-.33.5-.58.45-1.11-.41-.04-.7.04-1.03.45ZM10.84,16.59s-.25.25-.45.45c-.21-.21-.45-.45-.45-.45-.33-.41-.58-.5-1.11-.45,0,.54.08.78.45,1.11,0,0,.25.25.45.45-.29.29-.7.7-.87.87-.04.21-.08.45-.08.7.25,0,.5-.04.7-.08.17-.17.58-.58.87-.87.29.29.7.7.87.87.21.04.45.08.7.08,0-.25-.04-.5-.08-.7-.17-.17-.58-.58-.87-.87.21-.21.45-.45.45-.45.41-.33.5-.58.45-1.11-.41-.04-.7.04-1.03.45ZM45.79,16.59l-.45.45-.45-.45c-.33-.41-.58-.5-1.11-.45,0,.54.08.78.45,1.11l.45.45c-.29.29-.7.7-.87.87-.04.21-.08.45-.08.7.25,0,.5-.04.7-.08l.87-.87c.29.29.7.7.87.87.21.04.45.08.7.08,0-.25-.04-.5-.08-.7l-.87-.87.45-.45c.41-.33.5-.58.45-1.11-.45-.04-.74.04-1.03.45ZM56.27,23.52s-.25.25-.45.45c-.21-.21-.45-.45-.45-.45-.33-.41-.58-.5-1.11-.45,0,.54.08.78.45,1.11,0,0,.25.25.45.45-.29.29-.7.7-.87.87-.04.21-.08.45-.08.7.25,0,.5-.04.7-.08.17-.17.58-.58.87-.87.29.29.7.7.87.87.21.04.45.08.7.08,0-.25-.04-.5-.08-.7-.17-.17-.58-.58-.87-.87.21-.21.45-.45.45-.45.41-.33.5-.58.45-1.11-.45,0-.74.08-1.03.45ZM56.27,20.06s-.25.25-.45.45c-.21-.21-.45-.45-.45-.45-.33-.41-.58-.5-1.11-.45,0,.54.08.78.45,1.11,0,0,.25.25.45.45-.29.29-.7.7-.87.87-.04.21-.08.45-.08.7.25,0,.5-.04.7-.08.17-.17.58-.58.87-.87.29.29.7.7.87.87.21.04.45.08.7.08,0-.25-.04-.5-.08-.7-.17-.17-.58-.58-.87-.87.21-.21.45-.45.45-.45.41-.33.5-.58.45-1.11-.45-.04-.74.08-1.03.45ZM56.89,27.65c.41-.33.5-.58.45-1.11-.54,0-.78.08-1.11.45,0,0-.25.25-.45.45-.21-.21-.45-.45-.45-.45-.33-.41-.58-.5-1.11-.45,0,.54.08.78.45,1.11,0,0,.25.25.45.45-.29.29-.7.7-.87.87-.04.21-.08.45-.08.7.25,0,.5-.04.7-.08.17-.17.58-.58.87-.87.29.29.7.7.87.87.21.04.45.08.7.08,0-.25-.04-.5-.08-.7-.17-.17-.58-.58-.87-.87.29-.21.54-.45.54-.45ZM54.29,4.67c-.04.21-.08.45-.08.7.25,0,.5-.04.7-.08.17-.17.58-.58.87-.87.29.29.7.7.87.87.21.04.45.08.7.08,0-.25-.04-.5-.08-.7-.17-.17-.58-.58-.87-.87.21-.21.45-.45.45-.45.41-.33.5-.58.45-1.11-.54,0-.78.08-1.11.45,0,0-.25.25-.45.45-.21-.21-.45-.45-.45-.45-.33-.41-.58-.5-1.11-.45,0,.54.08.78.45,1.11,0,0,.25.25.45.45-.21.29-.62.66-.78.87ZM56.27,16.59s-.25.25-.45.45c-.21-.21-.45-.45-.45-.45-.33-.41-.58-.5-1.11-.45,0,.54.08.78.45,1.11,0,0,.25.25.45.45-.29.29-.7.7-.87.87-.04.21-.08.45-.08.7.25,0,.5-.04.7-.08.17-.17.58-.58.87-.87.29.29.7.7.87.87.21.04.45.08.7.08,0-.25-.04-.5-.08-.7-.17-.17-.58-.58-.87-.87.21-.21.45-.45.45-.45.41-.33.5-.58.45-1.11-.45-.04-.74.04-1.03.45ZM52.76,13.13s-.25.25-.45.45c-.21-.21-.45-.45-.45-.45-.33-.41-.58-.5-1.11-.45,0,.54.08.78.45,1.11l.45.45c-.29.29-.7.7-.87.87-.04.21-.08.45-.08.7.25,0,.5-.04.7-.08l.87-.87c.29.29.7.7.87.87.21.04.45.08.7.08,0-.25-.04-.5-.08-.7l-.87-.87.45-.45c.41-.33.5-.58.45-1.11-.45-.04-.7.04-1.03.45ZM56.27,9.66s-.25.25-.45.45c-.21-.21-.45-.45-.45-.45-.33-.41-.58-.5-1.11-.45,0,.54.08.78.45,1.11,0,0,.25.25.45.45-.29.29-.7.7-.87.87-.04.21-.08.45-.08.7.25,0,.5-.04.7-.08.17-.17.58-.58.87-.87.29.29.7.7.87.87.21.04.45.08.7.08,0-.25-.04-.5-.08-.7-.17-.17-.58-.58-.87-.87.21-.21.45-.45.45-.45.41-.33.5-.58.45-1.11-.45-.04-.74.04-1.03.45ZM56.27,13.13s-.25.25-.45.45c-.21-.21-.45-.45-.45-.45-.33-.41-.58-.5-1.11-.45,0,.54.08.78.45,1.11,0,0,.25.25.45.45-.29.29-.7.7-.87.87-.04.21-.08.45-.08.7.25,0,.5-.04.7-.08.17-.17.58-.58.87-.87.29.29.7.7.87.87.21.04.45.08.7.08,0-.25-.04-.5-.08-.7-.17-.17-.58-.58-.87-.87.21-.21.45-.45.45-.45.41-.33.5-.58.45-1.11-.45-.04-.74.04-1.03.45ZM38.82,20.06l-.45.45-.45-.45c-.33-.41-.58-.5-1.11-.45,0,.54.08.78.45,1.11l.45.45c-.29.29-.7.7-.87.87-.04.21-.08.45-.08.7.25,0,.5-.04.7-.08l.87-.87c.29.29.7.7.87.87.21.04.45.08.7.08,0-.25-.04-.5-.08-.7l-.87-.87.45-.45c.41-.33.5-.58.45-1.11-.45-.04-.74.08-1.03.45ZM35.31,13.13s-.25.25-.45.45c-.21-.21-.45-.45-.45-.45-.33-.41-.58-.5-1.11-.45,0,.54.08.78.45,1.11l.45.45c-.29.29-.7.7-.87.87-.04.21-.08.45-.08.7.25,0,.5-.04.7-.08l.87-.87c.29.29.7.7.87.87.21.04.45.08.7.08,0-.25-.04-.5-.08-.7l-.87-.87.45-.45c.41-.33.5-.58.45-1.11-.45-.04-.74.04-1.03.45ZM46.41,24.18c.41-.33.5-.58.45-1.11-.54,0-.78.08-1.11.45l-.45.45-.45-.45c-.33-.41-.58-.5-1.11-.45,0,.54.08.78.45,1.11l.45.45c-.29.29-.7.7-.87.87-.04.21-.08.45-.08.7.25,0,.5-.04.7-.08l.87-.87c.29.29.7.7.87.87.21.04.45.08.7.08,0-.25-.04-.5-.08-.7l-.87-.87c.29-.21.54-.45.54-.45ZM53.38,27.65c.41-.33.5-.58.45-1.11-.54,0-.78.08-1.11.45l-.45.45-.45-.45c-.33-.41-.58-.5-1.11-.45,0,.54.08.78.45,1.11l.45.45-.87.87c-.04.21-.08.45-.08.7.25,0,.5-.04.7-.08l.87-.87.87.87c.21.04.45.08.7.08,0-.25-.04-.5-.08-.7l-.87-.87c.29-.21.54-.45.54-.45ZM39.44,27.65c.41-.33.5-.58.45-1.11-.54,0-.78.08-1.11.45l-.45.45-.45-.45c-.33-.41-.58-.5-1.11-.45,0,.54.08.78.45,1.11l.45.45-.87.87c-.04.21-.08.45-.08.7.25,0,.5-.04.7-.08l.87-.87.87.87c.21.04.45.08.7.08,0-.25-.04-.5-.08-.7l-.87-.87c.29-.21.54-.45.54-.45ZM38.82,16.59l-.45.45-.45-.45c-.33-.41-.58-.5-1.11-.45,0,.54.08.78.45,1.11l.45.45c-.29.29-.7.7-.87.87-.04.21-.08.45-.08.7.25,0,.5-.04.7-.08l.87-.87c.29.29.7.7.87.87.21.04.45.08.7.08,0-.25-.04-.5-.08-.7l-.87-.87.45-.45c.41-.33.5-.58.45-1.11-.45-.04-.74.04-1.03.45ZM49.26,13.13s-.25.25-.45.45c-.21-.21-.45-.45-.45-.45-.33-.41-.58-.5-1.11-.45,0,.54.08.78.45,1.11l.45.45c-.29.29-.7.7-.87.87-.04.21-.08.45-.08.7.25,0,.5-.04.7-.08l.87-.87c.29.29.7.7.87.87.21.04.45.08.7.08,0-.25-.04-.5-.08-.7l-.87-.87.45-.45c.41-.33.5-.58.45-1.11-.41-.04-.7.04-1.03.45ZM49.92,27.65c.41-.33.5-.58.45-1.11-.54,0-.78.08-1.11.45l-.45.45-.45-.45c-.33-.41-.58-.5-1.11-.45,0,.54.08.78.45,1.11l.45.45-.87.87c-.04.21-.08.45-.08.7.25,0,.5-.04.7-.08l.87-.87.87.87c.21.04.45.08.7.08,0-.25-.04-.5-.08-.7l-.87-.87c.29-.21.54-.45.54-.45ZM45.79,20.06l-.45.45-.45-.45c-.33-.41-.58-.5-1.11-.45,0,.54.08.78.45,1.11l.45.45c-.29.29-.7.7-.87.87-.04.21-.08.45-.08.7.25,0,.5-.04.7-.08l.87-.87c.29.29.7.7.87.87.21.04.45.08.7.08,0-.25-.04-.5-.08-.7l-.87-.87.45-.45c.41-.33.5-.58.45-1.11-.45-.04-.74.08-1.03.45Z"></path></svg> 